<svg version="1.2" xmlns="http://www.w3.org/2000/svg" viewBox="0 0 51 103" width="51" height="103">
	<title>New Project</title>
	<style>
		.s0 { fill: #000000;stroke: #000000;stroke-linejoin: round;stroke-width: 3 } 
	</style>
	<path id="Layer" class="s0" d="m3.2 62.4h11.9l4.7 37.6c0.1 1.1 1 2 2.1 2.2q0.2 0 0.4 0c1 0 1.9-0.6 2.4-1.5l25.7-56.8c0.4-0.8 0.3-1.8-0.2-2.5-0.4-0.7-1.2-1.2-2.1-1.2h-12.9l11.2-36.5c0.2-0.8 0.1-1.6-0.4-2.2-0.5-0.7-1.2-1.1-2.1-1.1h-40.1c-1.4 0-2.6 1.1-2.6 2.5l-0.6 56.9c0 0.7 0.3 1.3 0.8 1.8 0.5 0.5 1.1 0.8 1.8 0.8z"/>
</svg>